<?xml version="1.0" standalone="no"?>
<!DOCTYPE svg PUBLIC "-//W3C//DTD SVG 1.1//EN" "http://www.w3.org/Graphics/SVG/1.1/DTD/svg11.dtd" >
<!--
2013-9-30: Created.
-->
<svg>
<metadata>
Created by iconfont
</metadata>
<defs>

<font id="iconfont" horiz-adv-x="1024" >
  <font-face
    font-family="iconfont"
    font-weight="500"
    font-stretch="normal"
    units-per-em="1024"
    ascent="896"
    descent="-128"
  />
    <missing-glyph />
    
    <glyph glyph-name="x" unicode="x" horiz-adv-x="1001"
d="M281 543q-27 -1 -53 -1h-83q-18 0 -36.5 -6t-32.5 -18.5t-23 -32t-9 -45.5v-76h912v41q0 16 -0.5 30t-0.5 18q0 13 -5 29t-17 29.5t-31.5 22.5t-49.5 9h-133v-97h-438v97zM955 310v-52q0 -23 0.5 -52t0.5 -58t-10.5 -47.5t-26 -30t-33 -16t-31.5 -4.5q-14 -1 -29.5 -0.5
t-29.5 0.5h-32l-45 128h-439l-44 -128h-29h-34q-20 0 -45 1q-25 0 -41 9.5t-25.5 23t-13.5 29.5t-4 30v167h911zM163 247q-12 0 -21 -8.5t-9 -21.5t9 -21.5t21 -8.5q13 0 22 8.5t9 21.5t-9 21.5t-22 8.5zM316 123q-8 -26 -14 -48q-5 -19 -10.5 -37t-7.5 -25t-3 -15t1 -14.5
t9.5 -10.5t21.5 -4h37h67h81h80h64h36q23 0 34 12t2 38q-5 13 -9.5 30.5t-9.5 34.5q-5 19 -11 39h-368zM336 498v228q0 11 2.5 23t10 21.5t20.5 15.5t34 6h188q31 0 51.5 -14.5t20.5 -52.5v-227h-327z" />
    

    
    <glyph glyph-name="tubiaozhuzhuangtu" unicode="&#58880;" d="M72.0855 711.6685c0 1.3107 0.4997 2.6204 1.4991 3.6209 1.0004 0.9994 2.3101 1.4991 3.6209 1.4991h32.392192c1.3107 0 2.6204-0.4997 3.6209-1.4991 0.9994-1.0004 1.4991-2.3101 1.4991-3.6209v-790.685696h861.740032c1.3097 0 2.6214-0.4997 3.6198-1.5002 1.0004-0.9994 1.5002-2.3101 1.5002-3.6198v-32.392192c0-1.3097-0.4997-2.6214-1.5002-3.6198-0.9994-1.0004-2.3101-1.5002-3.6198-1.5002H72.085504V711.66848zM384.724 701.4285c0 3.9311 1.4991 7.8623 4.4995 10.8605 2.9993 2.9993 6.9304 4.4995 10.8605 4.4995H539.89376c3.9311 0 7.8623-1.4991 10.8605-4.4995 2.9993-2.9993 4.4995-6.9304 4.4995-10.8605v-723.6014080000001H384.723968V701.42848zM171.562 488.2665c0 3.9311 1.4991 7.8623 4.4995 10.8605 2.9993 2.9993 6.9304 4.4995 10.8605 4.4995h139.809792c3.9311 0 7.8623-1.4991 10.8605-4.4995 2.9993-2.9993 4.4995-6.9304 4.4995-10.8605v-510.440448H171.561984V488.26649599999996zM597.887 275.1035c0 3.9311 1.5002 7.8623 4.4995 10.8605s6.9304 4.4995 10.8605 4.4995h139.809792c3.9311 0 7.8623-1.5002 10.8605-4.4995s4.4995-6.9304 4.4995-10.8605v-297.27744H597.886976V275.10348799999997zM811.049 61.9415c0 3.9311 1.5002 7.8623 4.4995 10.8605s6.9304 4.4995 10.8605 4.4995h139.809792c3.9311 0 7.8623-1.5002 10.8605-4.4995s4.4995-6.9304 4.4995-10.8605v-84.11648H811.04896V61.941503999999895z"  horiz-adv-x="1024" />

    
    <glyph glyph-name="anzhuo" unicode="&#58969;" d="M219.452 475.714c185.047 0 369.13 0 554.715 0 0-4.632 0-8.675 0-12.717 0-138.039 0.026-276.078-0.012-414.116-0.014-46.672-24.905-71.341-71.78-71.36-11.659-0.004-23.316 0-34.177 0 0-49.449 0.537-97.505-0.197-145.539-0.455-29.788-26.202-54.516-55.71-55.596-31.698-1.164-60.635 20.804-61.759 51.236-1.814 49.204-0.487 98.52-0.487 148.842-34.805 0-70.482 0-106.342 0 0-19.545 0.036-39.11-0.008-58.674-0.065-28.819 0.553-57.666-0.494-86.448-1.024-28.176-23.177-51.212-50.497-54.662-28.987-3.664-56.104 13.126-64.712 40.557-1.901 6.061-3.019 12.626-3.060 18.968-0.27 40.954-0.201 81.912-0.076 122.867 0.017 5.618 0.96 11.235 1.621 18.45-13.791 0-27.318-0.082-40.846 0.016-40.042 0.289-66.1 26.245-66.132 66.414-0.109 140.312-0.044 280.626-0.045 420.94-0 3.363-0 6.729-0 10.821zM774.41 516.656c-185.668 0-369.734 0-555.503 0 5.162 96.024 59.719 155.721 140.815 198.11-8.264 12.524-16.288 24.712-24.344 36.879-5.856 8.846-11.795 17.638-17.625 26.5-4.11 6.248-10.698 13.295-1.562 19.532 9.864 6.734 13.893-2.685 18.245-9.114 10.41-15.372 20.681-30.842 30.985-46.287 12.69-19.027 12.678-19.022 34.49-12.664 69.375 20.22 138.291 19.075 206.729-4.452 2.451-0.845 4.961-1.524 8.17-2.5 14.186 21.244 28.249 42.309 42.315 63.371 1.683 2.523 3.329 5.067 5.068 7.552 3.96 5.666 8.991 8.719 15.323 4.047 5.73-4.225 4.755-9.619 1.138-15.024-12.224-18.262-24.368-36.578-36.531-54.877-2.716-4.087-5.387-8.203-8.494-12.942 80.652-42.007 135.696-101.821 140.783-198.133zM645.27 624.668c0.167 16.064-13.282 29.732-29.435 29.911-16.304 0.183-29.587-12.945-29.719-29.367-0.129-16.617 12.601-29.545 29.194-29.65 16.527-0.101 29.79 12.785 29.96 29.107zM407.146 625.379c-0.213 16.402-13.604 29.513-29.836 29.207-16.118-0.302-29.56-14.111-29.276-30.081 0.288-16.286 13.661-29.137 30.134-28.961 16.562 0.178 29.196 13.183 28.979 29.834zM932.445 289.709c-0.002-41.29 0.106-82.584-0.034-123.875-0.126-36.346-25.113-62.591-59.242-62.569-34.103 0.021-59.302 26.442-59.337 62.562-0.078 83.722-0.171 167.444 0.068 251.164 0.087 30.823 22.671 55.563 52.468 58.664 31.012 3.225 58.188-16.013 64.758-46.275 1.268-5.843 1.252-12.034 1.266-18.069 0.102-40.533 0.053-81.069 0.051-121.604zM179.28 289.707c0-43.191 0.41-86.382-0.151-129.561-0.344-26.474-18.984-48.775-44.353-55.251-24.804-6.328-52.007 3.959-64.702 26.508-5.175 9.19-8.924 20.588-9.011 31.018-0.711 84.858-0.626 169.722-0.288 254.582 0.135 33.445 26.531 59.104 59.362 59.104 32.97-0.002 58.747-25.271 59.122-59.111 0.471-42.425 0.113-84.86 0.113-127.289-0.031 0.001-0.062 0.001-0.093 0.001z"  horiz-adv-x="1024" />

    
    <glyph glyph-name="qdao" unicode="&#58909;" d="M862.903427 458.965732c-19.140187 0-31.900312-12.760125-31.900312-31.900312l0-408.323988c0-44.660436-31.900312-82.94081-76.560748-82.94081L161.096573-64.199377C116.436137-64.199377 65.395639-25.919003 65.395639 18.741433L65.395639 612.087227C65.395639 656.747664 116.436137 701.4081 161.096573 701.4081l338.143302 0c19.140187 0 31.900312 12.760125 31.900312 31.900312S518.380062 765.208723 499.239875 765.208723L161.096573 765.208723C71.775701 765.208723 1.595016 701.4081 1.595016 612.087227l0-593.345794C1.595016-70.579439 71.775701-128 161.096573-128l593.345794 0c89.320872 0 140.361371 57.420561 140.361371 146.741433L894.803738 420.685358C894.803738 439.825545 882.043614 458.965732 862.903427 458.965732zM990.504673 816.249221l-51.040498 51.040498c-38.280374 38.280374-102.080997 38.280374-140.361371 0l-89.320872-108.461059L224.897196 286.70405l0-12.760125 0 0-63.800623-210.542056 44.660436-38.280374 197.781931 70.180685 0 0 12.760125 0 465.744548 491.264798 108.461059 89.320872C1028.785047 714.168224 1028.785047 777.968847 990.504673 816.249221zM250.417445 114.442368l31.900312 89.320872 57.420561-57.420561L250.417445 114.442368zM397.158879 178.242991 307.838006 267.563863 748.062305 701.4081 831.003115 618.46729 397.158879 178.242991zM945.844237 726.928349l-63.800623-63.800623-95.700935 95.700935 63.800623 63.800623C856.523364 822.629283 869.283489 829.009346 875.663551 829.009346c6.380062 0 19.140187-6.380062 25.520249-6.380062l51.040498-51.040498C958.604361 758.82866 958.604361 739.688474 945.844237 726.928349z"  horiz-adv-x="1024" />

    
    <glyph glyph-name="yonghu1" unicode="&#58924;" d="M828.177056 615.728848C743.804437 700.103514 631.626541 746.568778 512.305969 746.568778c-119.320573 0-231.499491-46.465265-315.871087-130.839931-84.372619-84.371596-130.838907-196.550515-130.838907-315.871087 0-86.930885 24.996301-171.207313 72.28635-243.720837 9.374508-14.372336 28.628014-18.421558 43.002396-9.05319 14.375405 9.374508 18.428721 28.628014 9.054213 43.004443-40.687678 62.386886-62.194504 134.925992-62.194504 209.769584 0 212.047464 172.514075 384.561539 384.560516 384.561539 212.048487 0 384.560516-172.515099 384.560516-384.561539S724.353432-84.703779 512.305969-84.703779c-70.216201 0-138.91177 19.09387-198.657502 55.213509-14.686491 8.881274-33.790594 4.172019-42.668799-10.513448-8.879228-14.687514-4.172019-33.791617 10.513448-42.668799 69.447698-41.986253 149.260465-64.179718 230.81183-64.179718 119.321596 0 231.499491 46.465265 315.872111 130.839931 84.371596 84.371596 130.837884 196.550515 130.837884 315.871087S912.549675 531.357252 828.177056 615.728848zM258.053264 66.994202c0-17.161868 13.912871-31.074739 31.074739-31.074739s31.074739 13.912871 31.074739 31.074739c0 105.355513 85.712127 191.065594 191.066617 191.065594s191.066617-85.711104 191.066617-191.065594c0-17.161868 13.912871-31.074739 31.074739-31.074739 17.161868 0 31.074739 13.912871 31.074739 31.074739 0 103.795994-62.784952 193.188954-152.36313 232.239342 48.228421 32.518624 80.010265 87.648223 80.010265 150.064784 0 99.729375-81.134879 180.864254-180.863231 180.864254s-180.863231-81.134879-180.863231-180.864254c0-62.415538 31.781844-117.54616 80.010265-150.064784C320.838216 260.183156 258.053264 170.790196 258.053264 66.994202zM392.553561 449.298328c0 65.459874 53.254901 118.715799 118.714775 118.715799S629.982088 514.758202 629.982088 449.298328 576.727187 330.582529 511.267313 330.582529 392.553561 383.83743 392.553561 449.298328z"  horiz-adv-x="1024" />

    
    <glyph glyph-name="shangsheng1" unicode="&#59673;" d="M682.666667 640l97.92-97.92-208.213333-208-170.666667 170.666667L85.333333 188.373333 145.706667 128l256 256 170.666667-170.666667 268.373333 268.586667L938.666667 384 938.666667 640 682.666667 640z"  horiz-adv-x="1024" />

    
    <glyph glyph-name="ios" unicode="&#58886;" d="M836.608 220.16q41.984-59.392 96.256-76.8-23.552-72.704-74.752-151.552-78.848-118.784-155.648-118.784-28.672 0-84.992 19.456-52.224 19.456-91.136 19.456t-86.016-20.48q-49.152-19.456-80.896-19.456-92.16 0-181.248 156.672-89.088 154.624-89.088 304.128 0 138.24 67.584 226.304 69.632 88.064 172.032 88.064 22.528 0 50.176-5.632t57.344-20.992q31.744-17.408 52.224-24.064t31.744-6.656q13.312 0 40.96 6.144t55.296 22.528q29.696 16.384 51.2 24.576t44.032 8.192q71.68 0 129.024-38.912 30.72-20.48 62.464-60.416-47.104-40.96-68.608-71.68-39.936-57.344-39.936-124.928 0-74.752 41.984-135.168zM630.784 698.368q-35.84-33.792-65.536-44.032-10.24-3.072-26.112-5.632t-36.352-4.608q1.024 90.112 47.104 155.648t151.552 90.112q2.048-10.24 3.072-14.336v-11.264q0-36.864-17.408-82.944-18.432-45.056-56.32-82.944z"  horiz-adv-x="1024" />

    
    <glyph glyph-name="gerenzhongxinxia" unicode="&#58917;" d="M959.671902-63.00573l-37.305651 0c-24.00574 195.955974-211.712843 353.878726-410.364205 353.878726-198.657502 0-386.362558-157.922752-410.369322-353.878726L64.327074-63.00573C83.97046 117.676375 212.020858 265.784598 378.576221 315.86725c-85.433788 45.669132-146.369625 130.6015-146.369625 235.760538 0 150.862963 131.85812 279.378965 279.795451 279.378965 147.936307 0 279.795451-128.517025 279.795451-279.378965 0-105.159038-60.962443-190.091406-146.370649-235.760538C811.961746 265.784598 940.03261 117.676375 959.671902-63.00573L959.671902-63.00573zM754.487753 551.626765c0 123.431194-121.450073 242.129596-242.485707 242.129596-121.04075 0-242.490823-118.698402-242.490823-242.129596s121.450073-223.5044 242.490823-223.5044C633.038704 328.122365 754.487753 428.196595 754.487753 551.626765L754.487753 551.626765zM754.487753 551.626765"  horiz-adv-x="1024" />

    
    <glyph glyph-name="shang-copy" unicode="&#58882;" d="M814.795 575.699c9.571 0 12.392-6.018 6.264-13.372l-297.761-357.392c-6.128-7.355-16.154-7.355-22.281 0l-297.761 357.392c-6.128 7.355-3.309 13.372 6.264 13.372h605.275z"  horiz-adv-x="1024" />

    
    <glyph glyph-name="yiqiandao" unicode="&#59013;" d="M512-128C229.229714-128 0 101.229714 0 384 0 666.770286 229.229714 896 512 896 794.770286 896 1024 666.770286 1024 384 1024 101.229714 794.770286-128 512-128ZM833.828571 574.171429C619.2128 523.922286 410.960457 250.938514 409.6 252.342857 376.100571 315.977143 277.942857 413.257143 277.942857 413.257143L190.171429 325.485714C356.995657 233.603657 424.228571 106.057143 424.228571 106.057143 563.872914 384 833.828571 530.285714 833.828571 530.285714 833.828571 530.285714 834.896457 574.522514 833.828571 574.171429Z"  horiz-adv-x="1024" />

    
    <glyph glyph-name="iconfontqiandao" unicode="&#59083;" d="M883.776 828.032l-88.448 0L795.328 757.12c0-26.944-24.96-48.896-55.744-48.896-30.72 0-55.744 21.952-55.744 48.896L683.84 828.032 340.16 828.032 340.16 757.12c0-26.944-25.024-48.896-55.744-48.896-30.72 0-55.744 21.952-55.744 48.896L228.672 828.032 140.224 828.032C80.576 828.032 32 785.408 32 733.056l0-766.144C32-85.376 80.576-128 140.224-128l743.552 0c59.712 0 108.224 42.624 108.224 94.976L992 733.056C992 785.408 943.424 828.032 883.776 828.032L883.776 828.032 883.776 828.032zM921.536-18.56c0-16.896-16.96-30.656-37.76-30.656L140.224-49.216c-20.864 0-37.76 13.76-37.76 30.656L102.464 559.232l819.072 0L921.536-18.56zM285.376 726.912c14.72 0 26.624 9.152 26.624 20.48L312 875.52C312 886.848 300.096 896 285.376 896c-14.72 0-26.688-9.152-26.688-20.48l0-128.192C258.688 736.064 270.592 726.912 285.376 726.912L285.376 726.912zM738.624 726.912c14.72 0 26.688 9.152 26.688 20.48L765.312 875.52c0 11.328-11.968 20.48-26.688 20.48-14.72 0-26.624-9.152-26.624-20.48l0-128.192C712 736.064 723.904 726.912 738.624 726.912zM757.568 385.728l-261.696-301.696c-13.952-16.064-36.544-16.064-50.496 0L298.432 253.44c-13.952 16.064-13.952 42.112 0 58.24 13.952 16.064 36.544 16.064 50.496 0l121.664-140.224 236.416 272.576c13.952 16.064 36.544 16.064 50.496 0C771.456 427.904 771.456 401.856 757.568 385.728L757.568 385.728z"  horiz-adv-x="1024" />

    
    <glyph glyph-name="artboard12" unicode="&#59335;" d="M808.973481 458.400558 743.005092 458.400558 743.005092 611.824077C743.005092 740.313491 638.573307 844.8 510.088691 844.8 381.599278 844.8 277.052289 740.313491 277.052289 611.824077L277.052289 458.400558 211.13958 458.400558C179.357787 458.400558 153.6 432.64565 153.6 400.860978L153.6-19.199939C153.6-51.041254 179.358747-76.8 211.13958-76.8L809.033001-76.8C840.819594-76.8 866.517862-51.041254 866.517862-19.199939L866.517862 400.860978C866.513065 432.64757 840.763914 458.400558 808.972524 458.400558L808.973481 458.400558ZM542.400404 179.883146 542.400404 88.156012C542.400404 84.058726 539.009679 80.602726 534.848077 80.602726L485.385946 80.602726C481.173461 80.602726 477.777938 84.058726 477.777938 88.156012L477.777938 179.883146C454.540153 191.766999 438.444777 215.590385 438.444777 243.514895 438.444777 283.023734 470.52129 315.16073 510.034931 315.16073 549.603292 315.16073 581.684608 283.024696 581.684608 243.514895 581.739325 215.590385 565.64395 191.766999 542.401367 179.883146L542.400404 179.883146ZM653.6194 458.400558 366.554142 458.400558 366.554142 608.022473C366.554142 687.164956 431.000929 751.612703 510.143411 751.612703 589.285893 751.612703 653.618442 687.164956 653.618442 608.022473L653.618442 458.400558 653.6194 458.400558Z"  horiz-adv-x="1024" />

    
    <glyph glyph-name="yiqiandao1" unicode="&#58897;" d="M921.6 798.72l-212.48 0L709.12 870.4l-71.68 0 0-71.68-248.32 0L389.12 870.4l-71.68 0 0-71.68L102.4 798.72C64 798.72 30.72 768 30.72 727.04l0-747.52c0-38.4 30.72-71.68 71.68-71.68L921.6-92.16c38.4 0 71.68 30.72 71.68 71.68L993.28 727.04C993.28 768 960 798.72 921.6 798.72zM921.6 53.76c0-38.4-30.72-71.68-71.68-71.68L174.08-17.92c-38.4 0-71.68 30.72-71.68 71.68L102.4 657.92c0 38.4 30.72 71.68 71.68 71.68l143.36 0 0-107.52 71.68 0L389.12 727.04l248.32 0 0-107.52 71.68 0L709.12 727.04l143.36 0c38.4 0 71.68-30.72 71.68-71.68L924.16 53.76zM138.24 478.72l747.52 0 0 71.68L138.24 550.4 138.24 478.72zM432.64 97.28 353.28 230.4 281.6 230.4l107.52-176.64L460.8 53.76l343.04 355.84-71.68 0L432.64 97.28z"  horiz-adv-x="1024" />

    
    <glyph glyph-name="left" unicode="&#58892;" d="M655.268 837.678l-407.439-407.419c-6.39-6.384-11.167-13.768-14.362-21.642-2.739-6.728-4.060-13.855-4.449-21.028-0.062-1.193-0.338-2.386-0.338-3.589 0-2.191 0.404-4.357 0.62-6.549 0.205-1.981 0.205-3.973 0.584-5.944 0.179-0.998 0.62-1.94 0.855-2.918 2.739-11.284 8.294-22.036 17.101-30.853l407.409-407.409c25.533-25.554 66.97-25.553 92.524 0 25.533 25.533 25.533 66.95 0 92.502l-323.676 323.676c-15.534 22.605-15.524 52.388 0 74.967l323.676 323.676c25.533 25.554 25.553 66.99 0 92.524-25.549 25.559-66.99 25.539-92.503 0.005z"  horiz-adv-x="1028" />

    
    <glyph glyph-name="gupiaodie" unicode="&#58887;" d="M917.841192 502.744451l-55.42738 63.299675c-10.209526 11.649318-26.909883 11.82635-37.303604 0.384763-10.420327-11.411911-10.578939-30.127158-0.369414-41.806151l34.929534-39.884382c-265.161149-12.239765-533.567201 92.27459-738.103598 314.076208-9.655917 10.466376-24.877597 11.588943-34.981722 1.655709-12.003382-11.796674-13.006222-31.989575-1.899256-44.022633C296.160163 526.988622 572.612473 416.472576 846.953701 424.809451l-23.267936-25.604144c-10.393721-11.441587-10.552334-30.156834-0.342808-41.806151 10.18292-11.678994 26.882254-11.856026 37.303604-0.414439l56.483432 62.117756 24.402783 26.845415c7.334036 8.042163 7.439436 21.228487 0.264013 29.418007L917.841192 502.744451zM170.130795 496.538099l-62.157665 0c-17.155728 0-31.078833-12.531408-31.078833-27.971052l0-503.479953c0-15.439644 13.923104-27.971052 31.078833-27.971052l62.157665 0c17.155728 0 31.078833 12.531408 31.078833 27.971052L201.209628 468.567048C201.209628 484.006691 187.2855 496.538099 170.130795 496.538099zM418.762479 372.221746l-62.157665 0c-17.155728 0-31.078833-12.183484-31.078833-27.194362l0-380.718001c0-15.010879 13.923104-27.194362 31.078833-27.194362l62.157665 0c17.155728 0 31.078833 12.183484 31.078833 27.194362L449.841312 345.028407C449.841312 360.039285 435.918207 372.221746 418.762479 372.221746zM667.395186 247.906415l-62.157665 0c-17.155728 0-31.078833-11.603269-31.078833-25.898857l0-258.991636c0-14.296611 13.923104-25.898857 31.078833-25.898857l62.157665 0c17.155728 0 31.078833 11.603269 31.078833 25.898857L698.474019 222.006536C698.474019 236.303146 684.550914 247.906415 667.395186 247.906415zM916.02687 185.747727l-62.157665 0c-17.155728 0-31.078833-11.138688-31.078833-24.863271l0-198.906166c0-13.724583 13.923104-24.863271 31.078833-24.863271l62.157665 0c17.155728 0 31.078833 11.138688 31.078833 24.863271L947.105702 160.884456C947.106726 174.609039 933.182598 185.747727 916.02687 185.747727z"  horiz-adv-x="1024" />

    
    <glyph glyph-name="gupiaozhang" unicode="&#58891;" d="M667.395186 372.221746l-62.157665 0c-17.155728 0-31.078833-12.183484-31.078833-27.194362l0-380.718001c0-15.010879 13.923104-27.194362 31.078833-27.194362l62.157665 0c17.155728 0 31.078833 12.183484 31.078833 27.194362L698.474019 345.027383C698.474019 360.039285 684.550914 372.221746 667.395186 372.221746zM418.762479 247.905392l-62.157665 0c-17.155728 0-31.078833-11.603269-31.078833-25.898857l0-258.991636c0-14.296611 13.923104-25.898857 31.078833-25.898857l62.157665 0c17.155728 0 31.078833 11.603269 31.078833 25.898857L449.841312 222.006536C449.841312 236.303146 435.918207 247.905392 418.762479 247.905392zM170.130795 185.747727l-62.157665 0c-17.155728 0-31.078833-11.138688-31.078833-24.863271l0-198.906166c0-13.724583 13.923104-24.863271 31.078833-24.863271l62.157665 0c17.155728 0 31.078833 11.138688 31.078833 24.863271L201.209628 160.884456C201.209628 174.609039 187.2855 185.747727 170.130795 185.747727zM893.393383 496.538099l22.342868 0c18.066471 0 31.369452-14.184047 31.369452-31.679513l0-496.063029c0-17.851577-13.913894-31.679513-31.078833-31.679513l-31.078833 0-31.078833 0c-16.662495 0-31.078833 14.183024-31.078833 31.679513L822.790372 464.858586c0 17.851577 14.044878 31.679513 31.370475 31.679513L893.393383 496.538099M891.185089 702.80286l0-34.323737c0-15.356756 12.467963-27.76946 27.830859-27.76946 15.362896 0 27.831882 12.412704 27.831882 27.76946l0 83.309404 0 35.989679c0 10.80202-8.766664 19.550265-19.565615 19.550265l-36.098149 0-83.495646 0c-15.362896 0-27.830859-12.441357-27.830859-27.76946 0-15.356756 12.467963-27.770484 27.830859-27.770484l52.602032 0C672.593582 544.486134 404.046313 411.579125 103.908558 403.803022c-14.166651-0.361227-26.161846-11.05273-26.969235-25.187659-0.918929-16.773012 11.883655-30.825053 28.193109-30.408567C415.540088 356.178351 694.052313 491.195418 891.185089 702.80286"  horiz-adv-x="1024" />

    
    <glyph glyph-name="103" unicode="&#58895;" d="M512 896c-281.6 0-512-230.4-512-512s230.4-512 512-512c281.6 0 512 230.4 512 512 0 281.6-230.4 512-512 512zM499.2 115.2c-25.6-25.6-70.4-25.6-96 0l-224 217.6c-25.6 25.6-25.6 70.4 0 96s70.4 25.6 96 0l172.8-166.4 332.8 326.4c25.6 25.6 70.4 25.6 96 0s25.6-70.4 0-96l-377.6-377.6z"  horiz-adv-x="1024" />

    
    <glyph glyph-name="xiajiang2" unicode="&#58894;" d="M434.750877-128c3.592982 0 10.778947 3.592982 14.37193 7.185965l312.589474 409.6c3.592982 3.592982 3.592982 7.185965 3.592982 10.778947 0 3.592982 0 7.185965-3.592982 10.778948-3.592982 7.185965-10.778947 7.185965-17.964913 7.185965l-208.392982-82.638597c-7.185965 319.775439 35.929825 467.087719 344.926316 661.108772-265.880702-53.894737-510.203509-158.091228-546.133334-661.108772l-208.392982 82.638597c-7.185965 3.592982-14.37193 0-17.964912-7.185965-3.592982-7.185965-3.592982-14.37193 0-21.557895l312.589473-409.6c3.592982-3.592982 10.778947-7.185965 14.37193-7.185965z"  horiz-adv-x="1024" />

    
    <glyph glyph-name="shangsheng4" unicode="&#59052;" d="M570.163001 896c-4.434693 0-8.863113-4.434693-13.297806-4.434693L237.69278 479.308255c-4.42842-4.434693-4.42842-8.869385-4.42842-8.869385 0-4.42842 0-8.863113 4.42842-8.863112 4.434693-4.434693 13.304078-8.863113 17.732498-4.434693l212.783701 84.227796c8.863113-323.600836-35.464996-474.317658-350.202719-669.368861 270.409615 53.197493 518.652039 159.586208 554.110762 669.368861l212.783701-84.227796c8.863113-4.42842 13.297805 0 17.732498 4.434693 4.42842 4.434693 4.42842 13.297805 0 22.16719L583.460806 896h-13.297805z"  horiz-adv-x="1024" />

    
    <glyph glyph-name="xiajiang1" unicode="&#59054;" d="M456.952104-128c4.434693 0 8.863113 4.434693 13.297806 4.434693l319.172415 412.257052c4.42842 4.434693 4.42842 8.869385 4.42842 8.869385 0 4.42842 0 8.863113-4.42842 8.863112-4.434693 4.434693-13.304078 8.863113-17.732498 4.434693l-212.783701-84.227796C550.043014 550.231974 594.371122 700.948797 909.108845 896c-270.409615-53.197493-518.652039-159.586208-554.110762-669.368861L142.214382 310.858935c-8.863113 4.42842-13.297805 0-17.732498-4.434693-4.42842-4.434693-4.42842-13.297805 0-22.16719l319.172415-412.257052h13.297805z"  horiz-adv-x="1024" />

    
    <glyph glyph-name="xia" unicode="&#58929;" d="M510.5 83c-8.2 2.3-16.5 4.2-24.4 7-8.8 3.1-15.9 8.9-22.5 15.4-118.5 118.5-236.9 237-355.4 355.5-29 29-57.8 58-86.9 86.8C10.1 558.8 2.5 571.4 0.6 587.2c0 0.3-0.3 0.7-0.5 1v13.6c0.7 3.1 1.4 6.3 2.2 9.4 6.5 24.2 26.6 42.1 51.5 45.7 0.7 0.1 1.4 0.4 2.1 0.7h13.6c0.3-0.2 0.7-0.5 1-0.5 15.6-1.9 28.2-9.5 39.2-20.5C242.7 503.2 376 370 509.1 236.8c1.2-1.2 1.9-3 3.1-4.9 2.1 2.4 3 3.5 4 4.5 133.1 133.1 266.2 266.2 399.3 399.4 11.7 11.7 25.3 18.5 41.9 19.9 33.9 2.9 65.5-25.1 66.6-59.1 0.7-19.5-6.2-35.7-20-49.4L560.1 103.3l-3.2-3.2c-7.9-7.4-17-12.4-27.5-14.9-4-1-8.1-1.5-12.1-2.2h-6.8z"  horiz-adv-x="1024" />

    
    <glyph glyph-name="shang" unicode="&#58930;" d="M517.2 657.5c4-0.7 8.1-1.3 12.1-2.2 10.5-2.5 19.6-7.6 27.5-14.9 1.1-1 2.2-2.1 3.2-3.2 148-148 296-295.9 444-443.8 13.7-13.7 20.6-29.9 20-49.4-1.2-34-32.7-62-66.6-59.1-16.5 1.4-30.2 8.2-41.9 19.9L516.2 504.1c-1 1-1.8 2.1-4 4.5-1.2-2-1.9-3.7-3.1-4.9C376 370.5 242.7 237.3 109.6 104c-11-11-23.6-18.6-39.2-20.5-0.4 0-0.7-0.4-1-0.5H55.8c-0.7 0.2-1.4 0.6-2.1 0.7-24.9 3.6-45.1 21.4-51.5 45.7-0.8 3.1-1.5 6.3-2.2 9.4v13.6c0.2 0.3 0.5 0.6 0.5 1 1.9 15.8 9.5 28.4 20.7 39.5 29.1 28.8 58 57.9 86.9 86.8 118.5 118.5 237 236.9 355.4 355.5 6.6 6.6 13.7 12.4 22.5 15.4 8 2.8 16.3 4.7 24.4 7h6.8z"  horiz-adv-x="1024" />

    
    <glyph glyph-name="yonghu" unicode="&#58954;" d="M608.691179 327.326233H418.543492c-166.001755 0-298.804387-135.820362-298.804387-301.822117v-18.10945c0-69.419046 132.802632-69.419046 295.786657-69.419045h190.148711c162.984025 0 295.785633 3.01773 295.785633 69.419045v18.10945c3.018753 166.001755-129.783879 301.822117-292.768927 301.822117zM279.7054 595.948203c0-126.765125 102.619192-232.403071 232.40307-232.403071s232.403071 102.620215 232.403071 232.403071c0 129.783879-105.637945 232.404094-232.403071 232.404094s-232.403071-105.638969-232.40307-232.404094z"  horiz-adv-x="1024" />

    
    <glyph glyph-name="tubiaozhexiantu" unicode="&#58890;" d="M513.943913 298.867071v-223.944404c0-3.944727 1.503677-7.888162 4.512323-10.894223a15.36 15.36 0 0 1 10.894222-4.512323h113.263192c3.944727 0 7.888162 1.503677 10.895515 4.512323a15.366465 15.366465 0 0 1 4.511031 10.894223V373.360485l-115.161213-99.136647-28.91507 24.643233zM29.938418 74.922667a15.347071 15.347071 0 0 1 4.513616-10.894223 15.358707 15.358707 0 0 1 10.892929-4.512323H158.593933c3.943434 0 7.886869 1.503677 10.894222 4.512323a15.365172 15.365172 0 0 1 4.513616 10.894223V303.376808L29.938418 184.539798v-109.617131z m241.97301 309.254464V74.925253c0-3.944727 1.503677-7.888162 4.512323-10.895516a15.358707 15.358707 0 0 1 10.892929-4.512323h113.28c3.943434 0 7.886869 1.50497 10.89293 4.512323a15.361293 15.361293 0 0 1 4.512323 10.895516V382.245495l-72.001939 61.308121-72.088566-59.376485z m484.035232-309.254464c0-3.944727 1.503677-7.888162 4.512323-10.894223a15.353535 15.353535 0 0 1 10.89293-4.512323h113.312323c3.944727 0 7.886869 1.503677 10.894222 4.512323a15.369051 15.369051 0 0 1 4.51103 10.894223v506.841212l-144.122828-124.094061v-382.747151zM731.093973 844.206545a5.136808 5.136808 0 0 1-3.602101-8.798383l108.284122-106.468849-292.919596-252.215596-198.855112 169.381495-314.88905-259.762424v-112.206869l314.890343 259.746909 198.855112-169.350464 353.82303 304.589575 89.466828-87.98901a5.132929 5.132929 0 0 1 8.73503 3.660283V839.07103a5.126465 5.126465 0 0 1-1.504969 3.633132 5.113535 5.113535 0 0 1-3.629253 1.503676H731.093973v-0.001293z"  horiz-adv-x="1024" />

    
    <glyph glyph-name="decline" unicode="&#58884;" d="M716.8 452.268h253.884c10.581 0 19.183-9.762 19.183-21.845 0-3.412-0.682-6.622-1.911-9.489-2.459-7.646-9.011-19.046-15.565-26.692-70.519-81.783-407.62-464.077-407.62-464.077-28.127-32.017-73.796-32.017-101.922 0l-407.62 464.077c-14.063 16.043-35.703 48.128-5.257 58.027 16.997-0.068 111.070 0 257.228 0v368.64c0 22.596 18.364 40.96 40.96 40.96h327.68c22.596 0 40.96-18.364 40.96-40.96v-368.64z"  horiz-adv-x="1024" />

    
    <glyph glyph-name="shangsheng2" unicode="&#58881;" d="M768 213.333l-98.133-98.133-209.067 209.067 170.667 170.667-315.733 315.733-59.733-59.733 256-256-170.667-170.667 268.8-268.8-98.133-98.133h256v256z"  horiz-adv-x="1024" />

    
    <glyph glyph-name="xiajiang" unicode="&#58984;" d="M348.16 890.88h291.84c46.08 0 87.04-35.84 87.04-87.04v-399.36h133.12c35.84 0 66.56-20.48 76.8-51.2s5.12-66.56-20.48-92.16l-363.52-363.52c-30.72-30.72-87.04-30.72-117.76 0l-363.52 363.52c-25.6 25.6-30.72 61.44-20.48 92.16 15.36 30.72 46.08 51.2 76.8 51.2H256V803.84C266.24 849.92 302.08 890.88 348.16 890.88z m148.48-942.08c5.12 0 5.12 0 10.24 5.12l363.52 363.52c5.12 5.12 5.12 10.24 5.12 15.36 0 5.12-5.12 10.24-10.24 10.24h-168.96c-20.48 0-35.84 15.36-35.84 35.84V803.84c0 5.12-5.12 15.36-15.36 15.36H348.16c-5.12 0-15.36-5.12-15.36-15.36v-435.2c0-20.48-15.36-35.84-35.84-35.84H138.24c-5.12 0-10.24-5.12-10.24-10.24s0-10.24 5.12-15.36l363.52-363.52c-5.12 5.12 0 5.12 0 5.12z"  horiz-adv-x="1024" />

    
    <glyph glyph-name="caret-up-small" unicode="&#58935;" d="M290.304 225.28c-12.288 0-21.504 16.896-11.264 29.184l216.576 279.552c7.68 10.752 23.552 10.752 31.232 0l218.624-279.552c8.704-11.776 1.024-29.184-12.288-29.184h-442.88z"  horiz-adv-x="1024" />

    
    <glyph glyph-name="fa-angle-up" unicode="&#58949;" d="M512 671.232c16.384 0 32.256-6.144 44.544-18.432l449.024-448.512c24.576-24.576 24.576-64.512 0-89.088s-64.512-24.576-89.088 0l-404.48 403.968-404.48-403.968c-24.576-24.576-64.512-24.576-89.088 0s-24.576 64.512 0 89.088l449.024 448.512c12.288 12.288 28.161 18.432 44.544 18.432z"  horiz-adv-x="1024" />

    
    <glyph glyph-name="fa-angle-down" unicode="&#58950;" d="M512 96.768c-16.384 0-32.256 6.144-44.544 18.432l-449.024 448.512c-24.576 24.576-24.576 64.512 0 89.088s64.512 24.576 89.088 0l404.48-403.968 404.48 403.968c24.576 24.576 64.512 24.576 89.088 0s24.576-64.512 0-89.088l-449.024-448.512c-12.288-12.288-28.161-18.432-44.544-18.432z"  horiz-adv-x="1024" />

    
    <glyph glyph-name="1-att" unicode="&#58896;" d="M409.344-46.848c68.416 124.992 307.456 348.544 478.144 462.656l67.072 40.96c26.432 14.272 49.536 24.064 67.968 28.16-52.608 119.936-6.464 217.408 1.024 329.856v0c-63.424-32.448-127.424-78.272-189.12-130.496l-71.424-64.192c-205.696-194.88-369.6-435.072-369.6-435.072l-120.128 232.448-272.896-132.672c115.456-41.152 292.096-187.904 408.64-331.584z"  horiz-adv-x="1024" />

    
    <glyph glyph-name="cha" unicode="&#58939;" d="M588.701 396.452l207.63 207.63c23.394 23.394 23.394 58.495 0 81.884s-58.495 23.394-81.884 0l-207.63-207.63-207.63 207.63c-23.394 23.394-58.495 23.394-81.884 0s-23.394-58.495 0-81.884l207.63-207.63-207.63-207.63c-23.394-23.394-23.394-58.495 0-81.884 11.705-11.705 26.326-17.55 40.947-17.55s29.238 5.847 40.947 17.55l207.63 207.63 207.63-207.63c11.705-11.705 26.326-17.55 40.947-17.55s29.238 5.847 40.947 17.55c23.394 23.394 23.394 58.495 0 81.884l-207.63 207.63z"  horiz-adv-x="1024" />

    
    <glyph glyph-name="jia" unicode="&#58976;" d="M34.816 348.672c-18.944 0-34.816 15.36-34.816 34.816s15.36 34.816 34.816 34.816l954.368 1.024c19.456 0 34.816-15.36 34.816-34.816s-15.36-34.816-34.816-34.816l-954.368-1.024zM511.488-128c-19.456 0-34.816 15.36-34.816 34.816l1.024 954.368c0 18.944 15.36 34.816 34.816 34.816s34.816-15.36 34.816-34.816l-1.024-954.368c0-19.456-15.872-34.816-34.816-34.816z"  horiz-adv-x="1024" />

    
    <glyph glyph-name="xiajiang3" unicode="&#58932;" d="M852.5 298.3L574.3-61.1c-12.3-7.2-23.2 3.9-23.2 3.9L272.9 302.1c-3.9 3.9-3.9 7.7-3.9 7.7 0 3.9 0 7.7 3.9 7.7 3.9 3.9 11.6 7.7 15.5 3.9L473.8 248c7.7 282.1-30.9 413.5-305.3 583.5 235.7-46.4 452.1-139.1 483-583.5L837 321.4c7.7 3.9 11.6 0 15.5-3.9 3.9-3.8 3.9-11.5 0-19.2z"  horiz-adv-x="1024" />

    
    <glyph glyph-name="shangsheng3" unicode="&#58931;" d="M852.5 469.7L574.3 829.1c-12.3 7.2-23.2-3.9-23.2-3.9L272.9 465.9c-3.9-3.9-3.9-7.7-3.9-7.7 0-3.9 0-7.7 3.9-7.7 3.9-3.9 11.6-7.7 15.5-3.9L473.8 520c7.7-282.1-30.9-413.5-305.3-583.5 235.7 46.4 452.1 139.1 483 583.5L837 446.6c7.7-3.9 11.6 0 15.5 3.9 3.9 3.8 3.9 11.5 0 19.2z"  horiz-adv-x="1024" />

    
    <glyph glyph-name="jia1" unicode="&#58889;" d="M1024 432h-464v464h-96v-464h-464v-96h464v-464h96v464h464z"  horiz-adv-x="1024" />

    
    <glyph glyph-name="xiajiang-" unicode="&#58926;" d="M321.4 263.3h-191.2c-26.401 0-41.9 29.6-26.999 51.3l379 552.4c12.999 19 40.999 19 54 0l379-552.301c14.9-21.7-0.6-51.3-26.999-51.3h-191.2v-343.001c0-18.101-14.7-32.801-32.8-32.8h-310.201c-18.101 0-32.801 14.7-32.8 32.8l0.199 342.9z"  horiz-adv-x="1024" />

    
    <glyph glyph-name="yonghu2" unicode="&#58893;" d="M520.552 855.027l3.004-0.022 3.004-0.055 2.992-0.066 2.992-0.078 2.992-0.111 2.97-0.122 2.981-0.144 2.97-0.155 2.97-0.177 2.959-0.199 2.959-0.222 2.948-0.233 2.948-0.244 2.937-0.277 2.937-0.288 2.926-0.31 2.926-0.321 2.915-0.344 2.915-0.366 2.915-0.377 2.893-0.399 2.904-0.41 2.893-0.432 2.882-0.454 2.882-0.465 2.871-0.488 2.871-0.499 2.859-0.521 2.848-0.543 2.848-0.554 2.848-0.576 2.837-0.587 2.826-0.61 2.826-0.621 2.815-0.643 2.815-0.665 2.804-0.676 2.793-0.687 2.793-0.709 2.793-0.731 2.771-0.743 2.771-0.754 2.771-0.776 2.749-0.798 2.749-0.809 2.749-0.831 2.738-0.842 2.726-0.853 2.715-0.876 2.715-0.887 2.715-0.909 5.386-1.862 5.364-1.928 2.671-0.986 2.66-1.009 2.649-1.020 2.649-1.031 2.638-1.053 2.627-1.064 2.627-1.086 2.616-1.097 2.605-1.108 2.593-1.13 2.593-1.142 5.154-2.327 5.12-2.394 2.549-1.219 2.538-1.241 2.527-1.241 2.527-1.263 2.516-1.286 2.505-1.286 2.494-1.308 4.965-2.66 2.472-1.352 2.449-1.363 2.46-1.385 2.438-1.396 2.427-1.408 2.427-1.419 2.416-1.441 2.405-1.452 2.394-1.463 2.383-1.485 2.372-1.496 2.372-1.507 2.35-1.518 2.35-1.529 2.339-1.552 2.327-1.563 2.316-1.574 2.305-1.596 2.294-1.596 2.294-1.618 2.272-1.629 2.261-1.64 2.261-1.662 2.25-1.662 2.228-1.685 2.228-1.696 2.217-1.707 2.206-1.729 2.194-1.729 2.172-1.751 2.172-1.762 2.161-1.773 2.15-1.784 2.139-1.795 2.139-1.818 2.117-1.818 2.106-1.84 2.095-1.84 2.084-1.862 2.073-1.873 2.061-1.884 2.050-1.906 2.039-1.906 2.017-1.917 2.017-1.94 2.006-1.94 1.995-1.962 1.984-1.962 1.962-1.984 1.962-1.995 3.879-4.012 1.917-2.028 1.906-2.039 1.906-2.050 1.884-2.061 1.873-2.073 1.862-2.084 1.84-2.095 1.84-2.106 1.818-2.117 1.818-2.128 1.795-2.15 1.784-2.15 1.773-2.161 1.762-2.161 1.751-2.183 1.729-2.194 1.729-2.206 1.707-2.217 1.696-2.228 1.685-2.228 1.662-2.25 1.662-2.261 1.64-2.261 1.629-2.272 1.618-2.294 1.596-2.294 1.596-2.305 1.574-2.316 1.563-2.327 1.552-2.339 1.529-2.35 1.518-2.35 1.507-2.372 1.496-2.372 1.485-2.383 1.463-2.394 1.452-2.405 1.441-2.416 1.419-2.427 1.408-2.427 1.396-2.438 1.374-2.449 1.374-2.46 1.352-2.472 2.66-4.965 1.308-2.494 1.286-2.505 1.286-2.516 1.263-2.527 1.241-2.527 1.241-2.538 1.219-2.549 2.394-5.12 1.164-2.571 1.164-2.582 1.142-2.593 1.13-2.593 1.108-2.605 1.097-2.616 1.086-2.627 1.064-2.627 1.053-2.638 1.031-2.649 1.020-2.649 1.009-2.66 0.986-2.671 1.928-5.364 1.862-5.386 0.909-2.715 0.887-2.704 0.876-2.726 0.853-2.726 0.842-2.738 0.831-2.749 0.809-2.749 0.798-2.749 0.776-2.771 0.754-2.771 0.743-2.771 0.731-2.793 0.709-2.793 0.687-2.793 0.676-2.804 0.665-2.815 0.643-2.815 0.621-2.826 0.61-2.826 0.587-2.837 0.576-2.837 0.554-2.859 0.532-2.848 0.521-2.859 0.51-2.871 0.488-2.871 0.465-2.882 0.454-2.882 0.432-2.893 0.41-2.904 0.399-2.893 0.377-2.915 0.366-2.915 0.344-2.915 0.321-2.926 0.31-2.926 0.288-2.937 0.266-2.937 0.255-2.948 0.233-2.948 0.222-2.959 0.2-2.959 0.177-2.97 0.155-2.97 0.144-2.981 0.122-2.97 0.111-2.992 0.078-2.992 0.066-2.992 0.055-2.992 0.022-3.015 0.011-3.004v-11.083l-0.011-3.004-0.022-3.015-0.055-2.992-0.066-2.992-0.078-2.992-0.111-2.992-0.122-2.97-0.144-2.981-0.155-2.97-0.177-2.97-0.2-2.959-0.222-2.959-0.233-2.948-0.255-2.948-0.266-2.937-0.288-2.937-0.31-2.926-0.321-2.926-0.344-2.915-0.366-2.915-0.377-2.915-0.399-2.893-0.41-2.904-0.432-2.893-0.454-2.882-0.465-2.882-0.488-2.871-0.51-2.871-0.521-2.859-0.532-2.848-0.554-2.859-0.576-2.837-0.587-2.837-0.61-2.826-0.621-2.826-0.643-2.815-0.665-2.815-0.676-2.804-0.687-2.793-0.709-2.793-0.731-2.793-0.743-2.771-0.754-2.771-0.776-2.771-0.798-2.749-0.809-2.749-0.831-2.749-0.842-2.738-0.853-2.726-0.876-2.726-0.887-2.704-0.909-2.715-1.862-5.386-1.928-5.364-0.986-2.671-1.009-2.66-1.020-2.649-1.031-2.649-1.053-2.638-1.064-2.627-1.086-2.627-1.097-2.616-1.108-2.605-1.13-2.593-1.142-2.593-1.164-2.582-1.164-2.571-2.394-5.12-1.219-2.549-1.241-2.538-1.241-2.527-1.263-2.527-1.286-2.516-1.286-2.505-1.308-2.494-2.66-4.965-1.352-2.472-1.374-2.46-1.374-2.449-1.396-2.438-1.408-2.427-1.419-2.427-1.441-2.416-1.452-2.405-1.463-2.394-1.485-2.383-1.496-2.372-1.507-2.372-1.518-2.35-1.529-2.35-1.552-2.339-1.563-2.327-1.574-2.316-1.596-2.305-1.596-2.294-1.618-2.294-1.629-2.272-1.64-2.261-1.662-2.261-1.662-2.25-1.685-2.228-1.696-2.228-1.707-2.217-1.729-2.206-1.729-2.194-1.751-2.183-1.762-2.161-1.773-2.161-1.784-2.15-1.795-2.15-1.818-2.128-1.818-2.117-1.84-2.106-1.84-2.095-1.862-2.084-1.873-2.073-1.884-2.061-1.906-2.050-1.906-2.039-1.917-2.028-3.879-4.012-1.962-1.995-1.962-1.984-1.984-1.962-1.995-1.962-2.006-1.94-2.017-1.94-2.017-1.917-2.039-1.906-2.050-1.906-2.061-1.884-2.073-1.873-2.084-1.862-2.095-1.84-2.106-1.84-2.117-1.818-2.139-1.818-2.139-1.795-2.15-1.784-2.161-1.773-2.172-1.762-2.172-1.751-2.194-1.729-2.206-1.729-2.217-1.707-2.228-1.696-2.228-1.685-2.25-1.662-2.261-1.662-2.261-1.64-2.272-1.629-2.294-1.618-2.294-1.596-2.305-1.596-2.316-1.574-2.327-1.563-2.339-1.552-2.35-1.529-2.35-1.518-2.372-1.507-2.372-1.496-2.383-1.485-2.394-1.463-2.405-1.452-2.416-1.441-2.427-1.419-2.427-1.408-2.438-1.396-2.46-1.385-2.449-1.363-2.472-1.352-4.965-2.66-2.494-1.308-2.505-1.286-2.516-1.286-2.527-1.263-2.527-1.241-2.538-1.241-2.549-1.219-5.12-2.394-5.154-2.327-2.593-1.142-2.593-1.13-2.605-1.108-2.616-1.097-2.627-1.086-2.627-1.064-2.638-1.053-2.649-1.031-2.649-1.020-2.66-1.009-2.671-0.986-5.364-1.928-5.386-1.862-2.715-0.909-2.715-0.887-2.715-0.876-2.726-0.853-2.738-0.842-2.749-0.831-2.749-0.809-2.749-0.798-2.771-0.776-2.771-0.754-2.771-0.743-2.793-0.731-2.793-0.709-2.793-0.687-2.804-0.676-2.815-0.665-2.815-0.643-2.826-0.621-2.826-0.61-2.837-0.587-2.848-0.576-2.848-0.554-2.848-0.543-2.859-0.521-2.871-0.499-2.871-0.488-2.882-0.465-2.882-0.454-2.893-0.432-2.904-0.41-2.893-0.399-2.915-0.377-2.915-0.366-2.915-0.344-2.926-0.321-2.926-0.31-2.937-0.288-2.937-0.277-2.948-0.244-2.948-0.233-2.959-0.222-2.959-0.199-2.97-0.177-2.97-0.155-2.981-0.144-2.97-0.122-2.992-0.111-2.992-0.078-2.992-0.067-3.004-0.055-3.004-0.022-3.004-0.011-14.087 0.011-3.004 0.022-3.004 0.055-2.992 0.067-2.992 0.078-2.992 0.111-2.97 0.122-2.981 0.144-2.97 0.155-2.97 0.177-2.959 0.199-2.959 0.222-2.948 0.233-2.948 0.244-2.937 0.277-2.937 0.288-2.926 0.31-2.926 0.321-2.915 0.344-2.915 0.366-2.915 0.377-2.893 0.399-2.904 0.41-2.893 0.432-2.882 0.454-2.882 0.465-2.871 0.488-2.871 0.499-2.859 0.521-2.848 0.543-2.848 0.554-2.848 0.576-2.837 0.587-2.826 0.61-2.826 0.621-2.815 0.643-2.815 0.665-2.804 0.676-2.793 0.687-2.793 0.709-2.793 0.731-2.771 0.743-2.771 0.754-2.771 0.776-2.749 0.798-2.749 0.809-2.749 0.831-2.738 0.842-2.726 0.853-2.715 0.876-2.715 0.887-2.715 0.909-5.386 1.862-5.364 1.928-2.671 0.986-2.66 1.009-2.649 1.020-2.649 1.031-2.638 1.053-2.627 1.064-2.627 1.086-2.616 1.097-2.605 1.108-2.593 1.13-2.593 1.142-5.154 2.327-5.12 2.394-2.549 1.219-2.538 1.241-2.527 1.241-2.527 1.263-2.516 1.286-2.505 1.286-2.494 1.308-4.965 2.66-2.472 1.352-2.449 1.363-2.46 1.385-2.438 1.396-2.427 1.408-2.427 1.419-2.416 1.441-2.405 1.452-2.394 1.463-2.383 1.485-2.372 1.496-2.372 1.507-2.35 1.518-2.35 1.529-2.339 1.552-2.327 1.563-2.316 1.574-2.305 1.596-2.294 1.596-2.294 1.618-2.272 1.629-2.261 1.64-2.261 1.662-2.25 1.662-2.228 1.685-2.228 1.696-2.217 1.707-2.206 1.729-2.194 1.729-2.172 1.751-2.172 1.762-2.161 1.773-2.15 1.784-2.139 1.795-2.139 1.818-2.117 1.818-2.106 1.84-2.095 1.84-2.084 1.862-2.073 1.873-2.061 1.884-2.050 1.906-2.039 1.906-2.017 1.917-2.017 1.94-2.006 1.94-1.995 1.962-1.984 1.962-1.962 1.984-1.962 1.995-3.879 4.012-1.917 2.028-1.906 2.039-1.906 2.050-1.884 2.061-1.873 2.073-1.862 2.084-1.84 2.095-1.84 2.106-1.818 2.117-1.818 2.128-1.795 2.15-1.784 2.15-1.773 2.161-1.762 2.161-1.751 2.183-1.729 2.194-1.729 2.206-1.707 2.217-1.696 2.228-1.685 2.228-1.662 2.25-1.662 2.261-1.64 2.261-1.629 2.272-1.618 2.294-1.596 2.294-1.596 2.305-1.574 2.316-1.563 2.327-1.552 2.339-1.529 2.35-1.518 2.35-1.507 2.372-1.496 2.372-1.485 2.383-1.463 2.394-1.452 2.405-1.441 2.416-1.419 2.427-1.408 2.427-1.396 2.438-1.374 2.449-1.374 2.46-1.352 2.472-2.66 4.965-1.308 2.494-1.286 2.505-1.286 2.516-1.263 2.527-1.241 2.527-1.241 2.538-1.219 2.549-2.394 5.12-1.164 2.571-1.164 2.582-1.142 2.593-1.13 2.593-1.108 2.605-1.097 2.616-1.086 2.627-1.064 2.627-1.053 2.638-1.031 2.649-1.020 2.649-1.009 2.66-0.986 2.671-1.928 5.364-1.862 5.386-0.909 2.715-0.887 2.704-0.876 2.726-0.853 2.726-0.842 2.738-0.831 2.749-0.809 2.749-0.798 2.749-0.776 2.771-0.754 2.771-0.743 2.771-0.731 2.793-0.709 2.793-0.687 2.793-0.676 2.804-0.665 2.815-0.643 2.815-0.621 2.826-0.61 2.826-0.587 2.837-0.576 2.837-0.554 2.859-0.532 2.848-0.521 2.859-0.51 2.871-0.488 2.871-0.465 2.882-0.454 2.882-0.432 2.893-0.41 2.904-0.399 2.893-0.377 2.915-0.366 2.915-0.344 2.915-0.321 2.926-0.31 2.926-0.288 2.937-0.266 2.937-0.255 2.948-0.233 2.948-0.222 2.959-0.2 2.959-0.177 2.97-0.155 2.97-0.144 2.981-0.122 2.97-0.111 2.992-0.078 2.992-0.066 2.992-0.055 2.992-0.022 3.015-0.011 3.004v11.083l0.011 3.004 0.022 3.015 0.055 2.992 0.066 2.992 0.078 2.992 0.111 2.992 0.122 2.97 0.144 2.981 0.155 2.97 0.177 2.97 0.2 2.959 0.222 2.959 0.233 2.948 0.255 2.948 0.266 2.937 0.288 2.937 0.31 2.926 0.321 2.926 0.344 2.915 0.366 2.915 0.377 2.915 0.399 2.893 0.41 2.904 0.432 2.893 0.454 2.882 0.465 2.882 0.488 2.871 0.51 2.871 0.521 2.859 0.532 2.848 0.554 2.859 0.576 2.837 0.587 2.837 0.61 2.826 0.621 2.826 0.643 2.815 0.665 2.815 0.676 2.804 0.687 2.793 0.709 2.793 0.731 2.793 0.743 2.771 0.754 2.771 0.776 2.771 0.798 2.749 0.809 2.749 0.831 2.749 0.842 2.738 0.853 2.726 0.876 2.726 0.887 2.704 0.909 2.715 1.862 5.386 1.928 5.364 0.986 2.671 1.009 2.66 1.020 2.649 1.031 2.649 1.053 2.638 1.064 2.627 1.086 2.627 1.097 2.616 1.108 2.605 1.13 2.593 1.142 2.593 1.164 2.582 1.164 2.571 2.394 5.12 1.219 2.549 1.241 2.538 1.241 2.527 1.263 2.527 1.286 2.516 1.286 2.505 1.308 2.494 2.66 4.965 1.352 2.472 1.374 2.46 1.374 2.449 1.396 2.438 1.408 2.427 1.419 2.427 1.441 2.416 1.452 2.405 1.463 2.394 1.485 2.383 1.496 2.372 1.507 2.372 1.518 2.35 1.529 2.35 1.552 2.339 1.563 2.327 1.574 2.316 1.596 2.305 1.596 2.294 1.618 2.294 1.629 2.272 1.64 2.261 1.662 2.261 1.662 2.25 1.685 2.228 1.696 2.228 1.707 2.217 1.729 2.206 1.729 2.194 1.751 2.183 1.762 2.161 1.773 2.161 1.784 2.15 1.795 2.15 1.818 2.128 1.818 2.117 1.84 2.106 1.84 2.095 1.862 2.084 1.873 2.073 1.884 2.061 1.906 2.050 1.906 2.039 1.917 2.028 3.879 4.012 1.962 1.995 1.962 1.984 1.984 1.962 1.995 1.962 2.006 1.94 2.017 1.94 2.017 1.917 2.039 1.906 2.050 1.906 2.061 1.884 2.073 1.873 2.084 1.862 2.095 1.84 2.106 1.84 2.117 1.818 2.139 1.818 2.139 1.795 2.15 1.784 2.161 1.773 2.172 1.762 2.172 1.751 2.194 1.729 2.206 1.729 2.217 1.707 2.228 1.696 2.228 1.685 2.25 1.662 2.261 1.662 2.261 1.64 2.272 1.629 2.294 1.618 2.294 1.596 2.305 1.596 2.316 1.574 2.327 1.563 2.339 1.552 2.35 1.529 2.35 1.518 2.372 1.507 2.372 1.496 2.383 1.485 2.394 1.463 2.405 1.452 2.416 1.441 2.427 1.419 2.427 1.408 2.438 1.396 2.46 1.385 2.449 1.363 2.472 1.352 4.965 2.66 2.494 1.308 2.505 1.286 2.516 1.286 2.527 1.263 2.527 1.241 2.538 1.241 2.549 1.219 5.12 2.394 5.154 2.327 2.593 1.142 2.593 1.13 2.605 1.108 2.616 1.097 2.627 1.086 2.627 1.064 2.638 1.053 2.649 1.031 2.649 1.020 2.66 1.009 2.671 0.986 5.364 1.928 5.386 1.862 2.715 0.909 2.715 0.887 2.715 0.876 2.726 0.853 2.738 0.842 2.749 0.831 2.749 0.809 2.749 0.798 2.771 0.776 2.771 0.754 2.771 0.743 2.793 0.731 2.793 0.709 2.793 0.687 2.804 0.676 2.815 0.665 2.815 0.643 2.826 0.621 2.826 0.61 2.837 0.587 2.848 0.576 2.848 0.554 2.848 0.543 2.859 0.521 2.871 0.499 2.871 0.488 2.882 0.465 2.882 0.454 2.893 0.432 2.904 0.41 2.893 0.399 2.915 0.377 2.915 0.366 2.915 0.344 2.926 0.321 2.926 0.31 2.937 0.288 2.937 0.277 2.948 0.244 2.948 0.233 2.959 0.222 2.959 0.199 2.97 0.177 2.97 0.155 2.981 0.144 2.97 0.122 2.992 0.111 2.992 0.078 2.992 0.066 3.004 0.055 3.004 0.022 3.004 0.011 14.087-0.011zM506.52 821.789l-2.848-0.011-2.793-0.022-2.793-0.044-2.782-0.067-2.782-0.078-2.771-0.1-2.771-0.111-2.771-0.133-2.76-0.144-2.76-0.166-2.749-0.188-2.749-0.2-2.738-0.222-2.738-0.233-2.726-0.244-5.453-0.554-5.42-0.621-5.409-0.687-2.693-0.377-2.693-0.388-2.682-0.399-2.682-0.421-2.671-0.432-2.66-0.443-5.32-0.953-2.649-0.499-2.649-0.521-2.638-0.532-2.627-0.543-2.627-0.565-5.242-1.175-2.605-0.61-2.605-0.632-2.593-0.643-2.593-0.654-2.582-0.676-2.582-0.687-2.571-0.709-2.56-0.72-2.56-0.731-2.549-0.754-2.549-0.765-2.538-0.787-2.527-0.798-2.527-0.809-2.527-0.831-2.505-0.842-2.505-0.853-2.505-0.876-2.483-0.887-2.494-0.898-2.472-0.92-2.472-0.931-2.46-0.942-2.46-0.964-2.449-0.975-2.438-0.986-4.854-2.017-2.427-1.042-2.405-1.042-2.405-1.064-2.394-1.075-2.394-1.086-2.383-1.108-2.372-1.119-2.361-1.13-2.361-1.142-2.35-1.164-2.339-1.164-2.327-1.186-2.327-1.208-2.316-1.208-2.316-1.23-2.294-1.241-2.294-1.252-2.283-1.275-2.272-1.275-2.272-1.297-2.261-1.308-2.25-1.33-2.239-1.33-4.455-2.704-2.217-1.374-2.206-1.396-2.194-1.396-2.194-1.408-2.172-1.43-2.172-1.441-2.161-1.452-2.15-1.463-2.139-1.474-2.139-1.485-2.128-1.507-2.106-1.507-2.106-1.529-2.095-1.541-2.095-1.552-2.073-1.563-2.061-1.574-2.061-1.585-2.050-1.596-2.039-1.618-2.028-1.618-2.017-1.64-2.006-1.64-1.995-1.662-1.984-1.674-1.984-1.685-1.962-1.685-1.962-1.707-1.94-1.718-1.94-1.729-1.928-1.74-1.917-1.751-1.895-1.762-1.895-1.773-1.884-1.784-1.873-1.795-1.862-1.818-1.851-1.818-1.84-1.829-1.829-1.84-1.818-1.851-1.818-1.862-1.795-1.873-1.784-1.884-1.773-1.895-1.762-1.895-1.751-1.917-1.74-1.928-1.729-1.94-1.718-1.94-1.707-1.962-1.685-1.962-1.685-1.984-1.674-1.984-1.662-1.995-1.64-2.006-1.64-2.017-1.618-2.028-1.618-2.039-1.596-2.050-1.585-2.061-1.574-2.061-1.563-2.073-1.552-2.095-1.541-2.095-1.529-2.106-1.507-2.106-1.507-2.128-1.485-2.139-1.474-2.139-1.463-2.15-1.452-2.161-1.441-2.172-1.43-2.172-1.408-2.194-1.396-2.194-1.396-2.206-1.374-2.217-2.704-4.455-1.33-2.239-1.33-2.25-1.308-2.261-1.297-2.272-1.275-2.272-1.275-2.283-1.252-2.294-1.241-2.294-1.23-2.316-1.208-2.316-2.394-4.655-1.164-2.339-1.164-2.35-1.142-2.361-1.13-2.361-1.119-2.372-1.108-2.383-1.086-2.394-1.075-2.394-1.064-2.405-1.042-2.405-1.031-2.427-1.020-2.427-1.009-2.427-0.986-2.438-0.975-2.449-0.964-2.46-0.942-2.46-0.931-2.472-0.92-2.472-0.898-2.494-0.887-2.483-0.876-2.505-0.853-2.505-0.842-2.505-0.831-2.527-0.809-2.516-0.798-2.538-0.787-2.538-0.765-2.549-0.743-2.549-0.743-2.56-0.72-2.56-0.698-2.571-0.698-2.582-0.676-2.582-0.654-2.593-0.643-2.593-0.632-2.605-0.61-2.605-1.175-5.231-0.565-2.627-0.543-2.638-0.532-2.638-0.521-2.649-0.499-2.649-0.477-2.649-0.465-2.671-0.454-2.66-0.432-2.671-0.421-2.682-0.399-2.682-0.388-2.693-0.366-2.693-0.355-2.704-0.344-2.704-0.31-2.704-0.31-2.715-0.554-5.453-0.244-2.726-0.233-2.738-0.222-2.738-0.2-2.749-0.188-2.749-0.166-2.76-0.144-2.76-0.133-2.771-0.111-2.771-0.1-2.771-0.078-2.782-0.066-2.782-0.044-2.793-0.022-2.793-0.011-2.848v-10.972l0.011-2.848 0.022-2.793 0.044-2.793 0.066-2.782 0.078-2.782 0.1-2.771 0.111-2.771 0.133-2.771 0.144-2.76 0.166-2.76 0.188-2.749 0.2-2.749 0.222-2.738 0.233-2.738 0.244-2.726 0.554-5.453 0.31-2.715 0.31-2.704 0.344-2.704 0.355-2.704 0.366-2.693 0.388-2.693 0.399-2.682 0.421-2.682 0.432-2.671 0.454-2.66 0.465-2.671 0.477-2.649 0.499-2.649 0.521-2.649 0.532-2.638 0.543-2.638 0.565-2.627 1.175-5.231 0.61-2.605 0.632-2.605 0.643-2.593 0.654-2.593 0.676-2.582 0.698-2.582 0.698-2.571 0.72-2.56 0.743-2.56 0.743-2.549 0.765-2.549 0.787-2.538 0.798-2.538 0.809-2.516 0.831-2.527 0.842-2.505 0.853-2.505 0.876-2.505 0.887-2.483 0.898-2.494 0.92-2.472 0.931-2.472 0.942-2.46 0.964-2.46 0.975-2.449 0.986-2.438 1.009-2.427 1.020-2.427 1.031-2.427 1.042-2.405 1.064-2.405 1.075-2.394 1.086-2.394 1.108-2.383 1.119-2.372 1.13-2.361 1.142-2.361 1.164-2.35 1.164-2.339 2.394-4.655 1.208-2.316 1.23-2.316 1.241-2.294 1.252-2.294 1.275-2.283 1.275-2.272 1.297-2.272 1.308-2.261 1.33-2.25 1.33-2.239 2.704-4.455 1.374-2.217 1.396-2.206 1.396-2.194 1.408-2.194 1.43-2.172 1.441-2.172 1.452-2.161 1.463-2.15 1.474-2.139 1.485-2.139 1.507-2.128 1.507-2.106 1.529-2.106 1.541-2.095 1.552-2.095 1.563-2.073 1.574-2.061 1.585-2.061 1.596-2.050 1.618-2.039 1.618-2.028 1.64-2.017 1.64-2.006 1.662-1.995 1.674-1.984 1.685-1.984 1.685-1.962 1.707-1.962 1.718-1.94 1.729-1.94 1.74-1.928 1.751-1.917 1.762-1.895 1.773-1.895 1.784-1.884 1.807-1.873 1.807-1.862 1.818-1.851 1.829-1.84 1.84-1.829 1.851-1.818 1.862-1.818 1.873-1.795 1.884-1.784 1.895-1.773 1.895-1.762 1.917-1.751 1.928-1.74 1.94-1.729 1.94-1.718 1.962-1.707 1.962-1.685 1.984-1.685 1.984-1.674 1.995-1.662 2.006-1.64 2.017-1.64 2.028-1.618 2.039-1.618 2.050-1.596 2.061-1.585 2.061-1.574 2.073-1.563 2.095-1.552 2.095-1.541 2.106-1.529 2.106-1.507 2.128-1.507 2.139-1.485 2.139-1.474 2.15-1.463 2.161-1.452 2.172-1.441 2.172-1.43 2.194-1.408 2.194-1.396 2.206-1.396 2.217-1.374 4.455-2.704 2.239-1.33 2.25-1.33 2.261-1.308 2.272-1.297 2.272-1.275 2.283-1.275 2.294-1.252 2.294-1.241 2.316-1.23 2.316-1.208 2.327-1.208 2.327-1.186 2.339-1.164 2.35-1.164 2.361-1.142 2.361-1.13 2.372-1.119 2.383-1.108 2.394-1.086 2.394-1.075 2.405-1.064 2.405-1.042 2.427-1.042 4.854-2.017 2.438-0.986 2.449-0.975 2.46-0.964 2.46-0.942 2.472-0.931 2.472-0.92 2.494-0.898 2.483-0.887 2.505-0.876 2.505-0.853 2.505-0.842 2.527-0.831 2.527-0.809 2.527-0.798 2.538-0.787 2.549-0.765 5.109-1.485 2.56-0.72 2.571-0.709 2.582-0.687 2.582-0.676 2.593-0.654 2.593-0.643 2.605-0.632 2.605-0.61 5.242-1.175 2.627-0.565 2.627-0.543 2.638-0.532 2.649-0.521 2.649-0.499 5.32-0.953 2.66-0.443 2.671-0.432 2.682-0.421 2.682-0.399 2.693-0.388 2.693-0.377 5.409-0.687 5.42-0.621 5.453-0.554 2.726-0.244 2.738-0.233 2.738-0.222 2.749-0.2 2.749-0.188 2.76-0.166 2.76-0.144 2.771-0.133 2.771-0.111 2.771-0.1 2.782-0.078 2.782-0.067 2.793-0.044 2.793-0.022 2.848-0.011 13.821 0.011 2.793 0.022 2.793 0.044 2.782 0.067 2.782 0.078 2.771 0.1 2.771 0.111 2.771 0.133 2.76 0.144 2.76 0.166 2.749 0.188 2.749 0.2 2.738 0.222 2.738 0.233 2.726 0.244 5.453 0.554 5.42 0.621 5.409 0.687 2.693 0.377 2.693 0.388 2.682 0.399 2.682 0.421 2.671 0.432 2.66 0.443 5.32 0.953 2.649 0.499 2.649 0.521 2.638 0.532 2.627 0.543 2.627 0.565 5.242 1.175 2.605 0.61 2.605 0.632 2.593 0.643 2.593 0.654 2.582 0.676 2.582 0.687 2.571 0.709 2.56 0.72 5.109 1.485 2.549 0.765 2.538 0.787 2.527 0.798 2.527 0.809 2.527 0.831 2.505 0.842 2.505 0.853 2.505 0.876 2.483 0.887 2.494 0.898 2.472 0.92 2.472 0.931 2.46 0.942 2.46 0.964 2.449 0.975 2.438 0.986 4.854 2.017 2.427 1.042 2.405 1.042 2.405 1.064 2.394 1.075 2.394 1.086 2.383 1.108 2.372 1.119 2.361 1.13 2.361 1.142 2.35 1.164 2.339 1.164 2.327 1.186 2.327 1.208 2.316 1.208 2.316 1.23 2.294 1.241 2.294 1.252 2.283 1.275 2.272 1.275 2.272 1.297 2.261 1.308 2.25 1.33 2.239 1.33 4.455 2.704 2.217 1.374 2.206 1.396 2.194 1.396 2.194 1.408 2.172 1.43 2.172 1.441 2.161 1.452 2.15 1.463 2.139 1.474 2.139 1.485 4.234 3.015 2.106 1.529 2.095 1.541 2.095 1.552 2.073 1.563 2.061 1.574 2.061 1.585 2.050 1.596 2.039 1.618 2.028 1.618 2.017 1.64 2.006 1.64 1.995 1.662 1.984 1.674 1.984 1.685 1.962 1.685 1.962 1.707 1.94 1.718 1.94 1.729 1.928 1.74 1.917 1.751 1.895 1.762 1.895 1.773 1.884 1.784 1.873 1.795 1.862 1.818 1.851 1.818 1.84 1.829 1.829 1.84 1.818 1.851 1.818 1.862 1.795 1.873 1.784 1.884 1.773 1.895 1.762 1.895 1.751 1.917 1.74 1.928 1.729 1.94 1.718 1.94 1.707 1.962 1.685 1.962 1.685 1.984 1.674 1.984 1.662 1.995 1.64 2.006 1.64 2.017 1.618 2.028 1.618 2.039 1.596 2.050 1.585 2.061 1.574 2.061 1.563 2.073 1.552 2.095 1.541 2.095 1.529 2.106 1.507 2.106 1.507 2.128 1.485 2.139 1.474 2.139 1.463 2.15 1.452 2.161 1.441 2.172 1.43 2.172 1.408 2.194 1.396 2.194 1.396 2.206 1.374 2.217 2.704 4.455 1.33 2.239 1.33 2.25 1.308 2.261 1.297 2.272 1.275 2.272 1.275 2.283 1.252 2.294 1.241 2.294 1.23 2.316 1.208 2.316 2.394 4.655 1.164 2.339 1.164 2.35 1.142 2.361 1.13 2.361 1.119 2.372 1.108 2.383 1.086 2.394 1.075 2.394 1.064 2.405 1.042 2.405 1.042 2.427 2.017 4.854 0.986 2.438 0.975 2.449 0.964 2.46 0.942 2.46 0.931 2.472 0.92 2.472 0.898 2.494 0.887 2.483 0.876 2.505 0.853 2.505 0.842 2.505 0.831 2.527 0.809 2.516 0.798 2.538 0.787 2.538 0.765 2.549 0.743 2.549 0.743 2.56 0.72 2.56 0.698 2.571 0.698 2.582 0.676 2.582 0.654 2.593 0.643 2.593 0.632 2.605 0.61 2.605 1.175 5.231 0.565 2.627 0.543 2.638 0.532 2.638 0.521 2.649 0.499 2.649 0.477 2.649 0.465 2.671 0.454 2.66 0.432 2.671 0.421 2.682 0.399 2.682 0.388 2.693 0.366 2.693 0.355 2.704 0.344 2.704 0.31 2.704 0.31 2.715 0.554 5.453 0.244 2.726 0.233 2.738 0.222 2.738 0.199 2.749 0.188 2.749 0.166 2.76 0.144 2.76 0.133 2.771 0.111 2.771 0.1 2.771 0.078 2.782 0.066 2.782 0.044 2.793 0.022 2.793 0.011 2.848v10.972l-0.011 2.848-0.022 2.804-0.044 2.782-0.066 2.782-0.078 2.782-0.1 2.771-0.111 2.771-0.133 2.771-0.144 2.76-0.166 2.76-0.188 2.749-0.199 2.749-0.222 2.738-0.233 2.738-0.244 2.726-0.554 5.453-0.31 2.715-0.31 2.704-0.344 2.704-0.355 2.704-0.366 2.693-0.388 2.693-0.399 2.682-0.421 2.682-0.432 2.671-0.454 2.66-0.465 2.671-0.477 2.649-0.499 2.649-0.521 2.649-0.532 2.638-0.543 2.638-0.565 2.627-1.175 5.231-0.61 2.605-0.632 2.605-0.643 2.593-0.654 2.593-0.676 2.582-0.698 2.582-0.698 2.571-0.72 2.56-0.743 2.56-0.743 2.549-0.765 2.549-0.787 2.538-0.798 2.538-0.809 2.516-0.831 2.527-0.842 2.505-0.853 2.505-0.876 2.505-0.887 2.483-0.898 2.494-0.92 2.472-0.931 2.472-0.942 2.46-0.964 2.46-0.975 2.449-0.986 2.438-2.017 4.854-1.042 2.427-1.042 2.405-1.064 2.405-1.075 2.394-1.086 2.394-1.108 2.383-1.119 2.372-1.13 2.361-1.142 2.361-1.164 2.35-1.164 2.339-1.197 2.339-1.197 2.316-1.208 2.316-1.23 2.316-1.241 2.294-1.252 2.294-1.275 2.283-1.275 2.272-1.297 2.272-1.308 2.261-1.33 2.25-1.33 2.239-2.704 4.455-1.374 2.217-1.396 2.206-1.396 2.194-1.408 2.194-1.43 2.172-1.441 2.172-1.452 2.161-1.463 2.15-1.474 2.139-1.485 2.139-1.507 2.128-1.507 2.106-1.529 2.106-1.541 2.095-1.552 2.095-1.563 2.073-1.574 2.061-1.585 2.061-1.596 2.050-1.618 2.039-1.618 2.028-1.64 2.017-1.64 2.006-1.662 1.995-1.674 1.984-1.685 1.984-3.391 3.923-1.718 1.94-1.729 1.94-1.74 1.928-1.751 1.917-1.762 1.895-1.773 1.895-1.784 1.884-1.795 1.873-1.818 1.862-1.818 1.851-1.829 1.84-1.84 1.829-1.851 1.818-1.862 1.818-1.873 1.795-1.884 1.784-1.895 1.773-1.895 1.762-1.917 1.751-1.928 1.74-1.94 1.729-1.94 1.718-1.962 1.707-1.962 1.685-1.984 1.685-1.984 1.674-1.995 1.662-2.006 1.64-2.017 1.64-2.028 1.618-2.039 1.618-2.050 1.596-2.061 1.585-2.061 1.574-2.073 1.563-2.095 1.552-2.095 1.541-2.106 1.529-2.106 1.507-2.128 1.507-2.139 1.485-2.139 1.474-2.15 1.463-2.161 1.452-2.172 1.441-2.172 1.43-2.194 1.408-2.194 1.396-2.206 1.396-2.217 1.374-4.455 2.704-2.239 1.33-2.25 1.33-2.261 1.308-2.272 1.297-2.272 1.275-2.283 1.275-2.294 1.252-2.294 1.241-2.316 1.23-2.316 1.208-2.327 1.208-2.327 1.186-2.339 1.164-2.35 1.164-2.361 1.142-2.361 1.13-2.372 1.119-2.383 1.108-2.394 1.086-2.394 1.075-2.405 1.064-2.405 1.042-2.427 1.042-4.854 2.017-2.438 0.986-2.449 0.975-2.46 0.964-2.46 0.942-2.472 0.931-2.472 0.92-2.494 0.898-2.483 0.887-2.505 0.876-2.505 0.853-2.505 0.842-2.527 0.831-2.527 0.809-2.527 0.798-2.538 0.787-2.549 0.765-2.549 0.754-2.56 0.731-2.56 0.72-2.571 0.709-2.582 0.687-2.582 0.676-2.593 0.654-2.593 0.643-2.605 0.632-2.605 0.61-5.242 1.175-2.627 0.565-2.627 0.543-2.638 0.532-2.649 0.521-2.649 0.499-5.32 0.953-2.66 0.443-2.671 0.432-2.682 0.421-2.682 0.399-2.693 0.388-2.693 0.377-5.409 0.687-5.42 0.621-5.453 0.554-2.726 0.244-2.738 0.233-2.738 0.222-2.749 0.2-2.749 0.188-2.76 0.166-2.76 0.144-2.771 0.133-2.771 0.111-2.771 0.1-2.782 0.078-2.782 0.067-2.793 0.044-2.793 0.022-2.848 0.011h-10.972zM510.699 89.193c-130.838 0-236.895 57.766-236.895 129.032 0 71.266 106.056 129.043 236.895 129.043 130.827 0 236.895-57.777 236.895-129.043 0-71.266-106.067-129.032-236.895-129.032zM508.482 360.612c-90.484 0-163.833 73.715-163.833 164.642s73.349 164.631 163.833 164.631c90.484 0 163.833-73.704 163.833-164.631 0-90.927-73.349-164.642-163.833-164.642z"  horiz-adv-x="1024" />

    
    <glyph glyph-name="arrow-up" unicode="&#58888;" d="M512 671.232c16.384-5.329070518200751e-15 32.25599999999999-6.144000000000011 44.54399999999999-18.43200000000001l449.02399999999983-448.5120000000002c24.575999999999993-24.57600000000001 24.575999999999983-64.512-2.1316282072803006e-14-89.088s-64.512-24.575999999999983-89.088 2.1316282072803006e-14l-404.4799999999999 403.96800000000013-404.48000000000013-403.9679999999999c-24.57600000000001-24.575999999999993-64.512-24.575999999999983-89.088 2.1316282072803006e-14s-24.575999999999983 64.512 2.1316282072803006e-14 89.088l449.02400000000017 448.5119999999999c12.288000000000006 12.287999999999997 28.16100000000001 18.431999999999988 44.544 18.431999999999988z"  horiz-adv-x="1024" />

    
    <glyph glyph-name="shouji" unicode="&#58885;" d="M702.7 835.055H321.283c-57.463 0-104.022-46.591-104.022-104.018v-693.455c0-57.427 46.56-104.019 104.022-104.019H702.7c57.463 0 104.023 46.592 104.023 104.02V731.036c0 57.426-46.56 104.018-104.024 104.018zM477.316 800.382h69.35c9.582 0 17.336-7.754 17.336-17.336 0-9.582-7.754-17.336-17.337-17.336h-69.349c-9.581 0-17.336 7.754-17.336 17.336 0 9.582 7.755 17.336 17.336 17.336z m34.675-824.46c-24.482 0-44.324 19.842-44.324 44.323 0 24.48 19.843 44.323 44.324 44.323 24.482 0 44.325-19.843 44.325-44.323 0-24.482-19.843-44.322-44.325-44.322z m225.381 148.341c0-9.582-7.753-17.335-17.336-17.335h-416.09c-9.583 0-17.338 7.753-17.338 17.335V713.7c0 9.582 7.755 17.336 17.338 17.336h416.09c9.583 0 17.336-7.755 17.336-17.336v-589.437z"  horiz-adv-x="1024" />

    
    <glyph glyph-name="touzantongpiao" unicode="&#58883;" d="M203.4181613922119 442.5490608215332h619.8657989501953c5.405788421630859 0 10.34963607788086 3.329372406005859 12.45849609375 8.371324539184572 2.0431995391845703 5.0751686096191415 0.9231090545654297 10.843248367309572-2.932319641113281 14.699449539184569l-309.9004554748535 309.93289947509766c-5.272922515869141 5.27369499206543-13.80955696105957 5.272922515869141-19.08247947692871 0l-309.96611595153803-309.93289947509766c-3.856201171874999-3.856201171874999-5.00950813293457-9.65672492980957-2.9006481170654292-14.732666015625 2.076416015625-5.00950813293457 6.987047195434571-8.33810806274414 12.45849609375-8.33810806274414zM823.2847328186035 330.3947868347168h-619.8657989501953c-5.438232421875 0-10.348863601684572-3.330144882202148-12.45849609375-8.33888053894043-2.1088600158691406-5.00950813293457-0.9555530548095703-10.81003189086914 2.9006481170654292-14.666233062744142l309.96611595153803-309.8672389984131c5.272922515869141-5.272922515869141 13.80955696105957-5.272922515869141 19.08247947692871 0l309.9004554748535 309.8672389984131c3.856201171874999 3.856201171874999 4.94384765625 9.65672492980957 2.9330921173095703 14.666233062744142-2.076416015625 5.00950813293457-7.052707672119142 8.33888053894043-12.457723617553711 8.33888053894043z"  horiz-adv-x="1024" />

    
    <glyph glyph-name="shangsheng6" unicode="&#59116;" d="M902.933918-62.439669C639.374922-44.358628 554.723792 123.526185 560.154469 458.583649l171.344139-0.885904c12.239236-0.134176 23.597728 6.369907 28.491702 17.570141 1.596347 3.574579 2.563101 7.525883 2.563101 11.360213a28.735971 28.735971 0 0 1-8.674978 20.946897L473.691966 862.824188c-11.718015 11.647486-31.161455 11.666409-43.238992 0.376725L137.399398 510.898426c-8.798832-8.360181-11.666409-21.099995-7.204205-32.092085 4.60498-11.064338 15.626313-17.749042 27.953279-17.757643l174.426741-1.176618c-5.554532-341.41533 98.306092-628.482604 553.6005-550.626271l16.758205 28.314522z"  horiz-adv-x="1024" />

    
    <glyph glyph-name="shangxia" unicode="&#58922;" d="M512 896l393.846154-447.330462H118.153846L512 896z m0-998.715077L118.153846 344.615385h787.692308l-393.846154-447.330462z"  horiz-adv-x="1024" />

    
    <glyph glyph-name="gupiaodie1" unicode="&#59243;" d="M989.324868 537.6903l-65.377073 74.407054c-11.919577 13.725573-31.785538 14.086772-44.066314 0.3612-12.280776-13.364374-12.280776-35.397531-0.361199-49.123104l41.17672-46.955909C608.982011 501.93157 293.293827 625.100529 52.735097 885.88642 41.17672 898.167196 23.116755 899.611993 11.558377 888.053616-2.528395 874.328042-3.611993 850.488889 9.391182 836.402116c248.866314-269.815873 573.945679-399.847619 896.857848-390.095238l-27.451146-29.979541c-12.280776-13.364374-12.280776-35.397531-0.3612-49.123104 11.919577-13.725573 31.785538-14.086772 44.066314-0.361199l66.46067 72.962257 28.534745 31.424339c8.668783 9.391182 8.668783 24.922751 0.361199 34.675132l-28.534744 31.785538z m-879.520282-7.223986H36.481129c-20.22716 0-36.481129-14.809171-36.481129-32.869136v-592.366843c0-18.059965 16.253968-32.869136 36.481129-32.869136h72.962257c20.22716 0 36.481129 14.809171 36.481129 32.869136v592.366843c0.361199 18.059965-15.892769 32.869136-36.119929 32.869136z m292.571428-146.285714H329.052557c-20.22716 0-36.481129-14.447972-36.481128-32.146738v-447.887125c0-17.698765 16.253968-32.146737 36.481128-32.146737h72.962258c20.22716 0 36.481129 14.447972 36.481129 32.146737v447.887125c0.361199 17.698765-16.253968 32.146737-36.11993 32.146738z m292.571429-146.285715h-72.962258c-20.22716 0-36.481129-13.725573-36.481129-30.34074V-97.29806c0-16.976367 16.253968-30.340741 36.481129-30.340741h72.962258c20.22716 0 36.481129 13.725573 36.481128 30.340741v304.852205c0 16.615168-16.615168 30.340741-36.481128 30.34074z m292.210229-73.323456h-72.962258c-20.22716 0-36.481129-13.003175-36.481128-29.257143v-234.057143c0-16.253968 16.253968-29.257143 36.481128-29.257143h72.962258c20.22716 0 36.481129 13.003175 36.481129 29.257143v234.057143c0.361199 16.253968-16.253968 29.257143-36.481129 29.257143z m0 0"  horiz-adv-x="1024" />

    


  </font>
</defs>
</svg>
